<svg width="277" height="172" viewBox="0 0 277 172" fill="none" xmlns="http://www.w3.org/2000/svg">
<path d="M65.824 72.8482L73.0101 72.1482L73.7713 75.4028L65.824 72.8482Z" fill="#D9805D"/>
<path d="M173.354 76.9045C173.354 76.9045 142.426 77.9107 138.185 76.9045C133.944 75.8963 127.211 75.1709 124.716 76.9045C122.222 78.6381 94.2097 81.1985 87.8843 80.9645C83.7838 80.8124 79.576 76.5613 77.6478 72.944L73.6468 65.4344C73.2077 65.1087 72.5734 65.331 72.4426 65.8614C72.1557 67.0198 72.4153 75.2216 74.1543 78.6966C75.7312 81.8478 74.7807 87.3684 77.111 88.008C79.7243 88.7237 80.5109 87.4503 81.8146 86.8633C81.8146 86.8633 87.8004 87.3625 92.0414 89.6051C96.2824 91.8476 116.984 93.2185 128.208 89.2931C128.208 89.2931 160.641 99.2461 178.36 93.3784L173.354 76.9045Z" fill="#A36046"/>
<path d="M175.228 82.0859C175.228 82.0859 144.614 86.5944 140.287 86.0738C135.96 85.5531 129.186 85.596 126.904 87.6006C124.623 89.6053 97.0825 95.3248 90.7728 95.8103C86.682 96.1243 84.4376 97.5166 80.8387 94.5038L73.4926 87.7957C73.0183 87.5226 72.4153 87.8152 72.345 88.3573C72.1908 89.5409 73.7736 94.7534 77.1813 98.2089C79.656 100.719 78.4811 103.659 80.8699 104.028C83.5476 104.441 84.1839 103.088 85.4135 102.359C85.4135 102.359 91.4168 102.175 95.8842 103.922C100.352 105.67 121.077 104.685 131.782 99.5115C131.782 99.5115 165.136 105.722 182.074 97.8832L175.228 82.0859Z" fill="#A36046"/>
<path d="M98.1264 108.302H93.4697V172H98.1264V108.302Z" fill="#A4A8B3"/>
<path d="M158.654 141.441H95.7959V143.465H158.654V141.441Z" fill="#A4A8B3"/>
<path d="M75.8509 118.645L75.8509 118.645L74.3442 110.285C73.7392 106.923 75.9748 103.705 79.3417 103.1L79.3417 103.1L135.441 93.0107C138.806 92.4062 142.027 94.642 142.632 98.004L142.73 97.9863L142.632 98.004L144.139 106.364C144.743 109.726 142.508 112.942 139.141 113.549L83.0419 123.638C79.6767 124.243 76.4559 122.009 75.8509 118.645Z" fill="#E1FCD6" stroke="#2F353B" stroke-width="0.2"/>
<path d="M203.321 112.451H146.32C142.899 112.451 140.128 109.682 140.128 106.264V97.7699C140.128 94.3521 142.899 91.5829 146.32 91.5829H203.321C206.739 91.5829 209.513 94.3522 209.513 97.7699V106.264C209.513 109.682 206.741 112.451 203.321 112.451Z" fill="#E1FCD6" stroke="#2F353B" stroke-width="0.2"/>
<path d="M153.976 93.6258C153.976 93.6258 146.811 95.2267 148.066 85.4375C149.319 75.6484 142.822 72.306 148.066 72.15C153.31 71.994 179.022 75.8824 187.449 73.1075C195.878 70.3326 198.65 66.6782 198.65 66.6782L236.659 54.937C236.659 54.937 236.895 64.5741 234.567 68.6711C232.238 72.7701 219.578 85.4375 219.578 85.4375C219.578 85.4375 192.875 107.506 153.976 93.6258Z" fill="white"/>
<path d="M157.493 89.605L159.382 85.1725C160.444 82.6784 162.612 80.8259 165.243 80.1629L168.779 79.2717C170.009 78.9617 171.27 78.8057 172.536 78.8057H177.113C177.113 78.8057 178.028 82.2943 176.614 83.5404C175.202 84.7864 157.493 89.605 157.493 89.605Z" fill="#A36046"/>
<path d="M175.868 85.34C175.868 85.34 177.753 80.6326 176.145 78.3628C174.537 76.093 180.413 77.3098 181.411 76.9237C182.408 76.5356 183.905 82.7387 182.131 84.8993C180.357 87.0561 175.868 85.34 175.868 85.34Z" fill="white"/>
<path d="M182.955 82.1929C182.892 82.191 182.845 82.1422 182.847 82.0837C182.847 82.0369 182.931 77.4114 181.385 77.0273C180.589 76.8284 180.484 76.8674 180.31 76.9317C180.109 77.0058 179.834 77.1072 178.715 77.0117C177.34 76.8966 176.364 77.0955 176.104 77.546C175.985 77.7507 176.03 78.0042 176.235 78.3006C176.268 78.3494 176.256 78.4157 176.208 78.4508C176.159 78.484 176.092 78.4723 176.057 78.4235C175.737 77.9633 175.804 77.6337 175.917 77.4387C176.223 76.9064 177.25 76.6724 178.733 76.7972C179.804 76.8869 180.054 76.7952 180.236 76.7289C180.466 76.6451 180.614 76.6119 181.438 76.8167C183.15 77.2418 183.068 81.8887 183.064 82.0876C183.06 82.1461 183.013 82.1929 182.955 82.1929Z" fill="#2F353B"/>
<path d="M275.065 47.0894L275.065 47.0894C269.731 51.2341 262.207 57.9391 257.186 66.0232L257.27 66.0759L257.186 66.0232C255.055 69.4554 253.648 73.3704 252.737 77.3149C251.483 82.7452 252.163 88.4023 254.345 93.5268L254.437 93.4876L254.345 93.5268C255.235 95.6168 255.728 97.9162 255.728 100.332V154.487C255.728 164.102 247.927 171.898 238.302 171.898H169.982C160.358 171.898 152.555 164.104 152.555 154.487V100.332C152.555 90.7173 160.356 82.9209 169.982 82.9209H207.657C212.159 82.9209 216.628 81.9958 220.711 80.0957C223.654 78.7262 226.713 76.7341 229.427 73.8431C231.454 71.6845 233.595 68.5276 234.897 64.9154C236.197 61.307 236.661 57.2382 235.328 53.256L235.327 53.2383C235.327 53.2294 235.327 53.2185 235.326 53.2059C235.326 53.1883 235.326 53.1672 235.326 53.1427C235.325 53.0582 235.326 52.9327 235.332 52.77C235.343 52.4447 235.374 51.9708 235.451 51.3787C235.604 50.1945 235.943 48.5378 236.682 46.6513C238.161 42.8797 241.243 38.1858 247.665 34.5097C248.39 34.0949 249.054 33.6858 249.676 33.303C249.999 33.1042 250.31 32.9125 250.612 32.7308C251.499 32.1977 252.311 31.7485 253.127 31.4441C254.751 30.8387 256.398 30.8024 258.677 31.8597L258.719 31.769L258.677 31.8597L274.287 39.0987C274.287 39.0989 274.288 39.0992 274.288 39.0995C277.401 40.6739 277.821 44.9509 275.065 47.0894Z" fill="#E1FCD6" stroke="#2F353B" stroke-width="0.2"/>
<path d="M235.164 54.6917L235.562 53.3208L238.675 42.5858L229.026 40.6631L228.288 40.5168L224.047 47.2776L221.032 52.0845L218.504 56.1152C218.504 56.1152 222.015 58.4494 227.271 57.1936C227.271 57.1897 232.459 56.1717 235.164 54.6917Z" fill="#A36046"/>
<path d="M228.288 40.5168L224.047 47.2776C227.941 48.0557 230.977 44.376 230.977 44.376L229.026 40.6651L228.288 40.5168Z" fill="#754532"/>
<path d="M225.407 29.6727C218.198 37.6757 219.738 41.525 223.104 43.7676C225.954 45.665 234.428 47.2211 239.43 41.6069C244.432 35.9928 248.351 30.2577 243.615 26.0476C238.878 21.8336 229.459 22.169 225.407 29.6727Z" fill="#A36046"/>
<path d="M226.65 28.8555C226.65 28.8555 222.386 31.6479 221.574 32.2193C220.498 32.9739 221.472 33.8105 222.962 35.078C224.152 36.094 226.65 28.8555 226.65 28.8555Z" fill="#A36046"/>
<path d="M228.175 27.2974C227.87 27.5022 228.063 28.327 228.608 29.1402C229.152 29.9534 229.841 30.4487 230.146 30.2439C230.45 30.0392 230.257 29.2143 229.713 28.4011C229.168 27.588 228.479 27.0927 228.175 27.2974Z" fill="#2F353B"/>
<path d="M228.444 31.6908C226.834 33.3191 224.894 32.3538 225.532 30.082C225.558 29.9943 225.692 30.0157 225.692 30.1054C225.815 32.1276 226.598 32.4104 228.349 31.5621C228.425 31.5172 228.509 31.6264 228.444 31.6908Z" fill="#2F353B"/>
<path d="M221.537 37.1139C221.192 37.1139 220.893 37.069 220.87 37.0671C220.811 37.0593 220.77 37.0027 220.78 36.9442C220.788 36.8857 220.845 36.8467 220.903 36.8545C220.913 36.8565 221.832 36.991 222.256 36.7863C222.308 36.7609 222.373 36.7824 222.4 36.835C222.425 36.8877 222.404 36.952 222.351 36.9793C222.133 37.0846 221.82 37.1139 221.537 37.1139Z" fill="#2F353B"/>
<path d="M238.24 45.9806C241.673 45.6121 242.445 44.3718 245.131 42.2911C247.444 40.4971 250.092 38.1356 251.091 35.3978C251.724 33.6642 252.208 32.1646 252.104 30.3238C252.015 28.7169 251.897 27.2135 252.286 25.6359C253.295 21.5408 256.427 17.9391 253.675 13.6665C251.466 10.2364 247.272 7.8808 244.557 10.9521C240.26 11.3109 240.027 16.5663 237.283 18.1809C234.855 19.6083 230.398 21.3633 230.361 24.7155C230.341 26.4919 231.932 27.1296 232.96 28.3308C234.073 29.6276 234.268 31.211 234.336 32.7847C234.336 32.7828 232.063 46.6456 238.24 45.9806Z" fill="white"/>
<path d="M249.087 18.9903C249.064 18.9903 249.042 18.9825 249.023 18.9688C248.785 18.7894 243.226 14.5656 244.614 11.9116C244.641 11.859 244.706 11.8395 244.758 11.8668C244.811 11.8941 244.831 11.9584 244.803 12.0111C243.501 14.5052 249.095 18.7563 249.152 18.7992C249.198 18.8343 249.208 18.9025 249.173 18.9493C249.152 18.9766 249.12 18.9903 249.087 18.9903Z" fill="#2F353B"/>
<path d="M246.589 28.2471C246.574 28.2471 246.556 28.2432 246.54 28.2354C246.47 28.2003 239.501 24.5869 240.057 19.1775C240.063 19.119 240.117 19.0741 240.174 19.0819C240.233 19.0878 240.275 19.1404 240.27 19.1989C239.729 24.4621 246.568 28.0092 246.638 28.0443C246.691 28.0716 246.712 28.136 246.685 28.1886C246.665 28.2257 246.628 28.2471 246.589 28.2471Z" fill="#2F353B"/>
<path d="M241.177 43.5764C241.148 43.5764 241.118 43.5647 241.097 43.5413C241.058 43.4965 241.062 43.4282 241.107 43.3892C241.169 43.3327 247.463 37.7243 249.392 33.8984C250.297 32.1043 250.303 29.6629 250.309 27.3014C250.317 24.5304 250.323 21.9115 251.706 20.3554C251.745 20.3105 251.814 20.3066 251.859 20.3456C251.903 20.3846 251.907 20.4529 251.868 20.4977C250.539 21.9915 250.533 24.5714 250.526 27.3014C250.52 29.6863 250.512 32.1531 249.585 33.9939C247.637 37.8569 241.314 43.4926 241.251 43.5491C241.23 43.5667 241.202 43.5764 241.177 43.5764Z" fill="#2F353B"/>
<path d="M206.464 61.3606C206.464 61.3606 212.673 56.3002 217.493 54.1337C222.302 51.9731 233.829 52.8077 236.659 50.647C239.489 48.4864 238.817 56.9593 236.659 58.2054C234.5 59.4515 217.041 59.9507 216.043 62.1932C215.046 64.4358 196.339 69.42 196.589 66.9279C196.839 64.4338 202.786 63.529 206.464 61.3606Z" fill="white"/>
<path d="M200.256 67.7139C200.197 67.7139 200.148 67.6671 200.148 67.6066C200.148 67.5481 200.195 67.4994 200.256 67.4994C208.849 67.4331 215.294 62.7783 217.411 61.2475L217.501 61.1832C219.456 59.7714 234.102 58.6677 234.724 58.6209C234.781 58.617 234.836 58.6599 234.84 58.7203C234.844 58.7788 234.799 58.8315 234.74 58.8354C234.588 58.8471 219.533 59.982 217.626 61.3587L217.536 61.4231C215.405 62.9616 208.917 67.6476 200.256 67.7139Z" fill="#2F353B"/>
<path d="M141.06 92.1481C141.052 92.1481 141.044 92.1481 141.036 92.1461C138.153 91.524 133.514 90.5744 131.004 90.0654C129.853 89.8314 128.678 89.7846 127.509 89.927L113.884 91.5923C113.828 91.6001 113.771 91.5572 113.765 91.4987C113.759 91.4402 113.8 91.3856 113.859 91.3797L127.484 89.7144C128.674 89.5682 129.872 89.6169 131.047 89.8548C133.557 90.3638 138.198 91.3134 141.083 91.9355C141.141 91.9472 141.179 92.0057 141.165 92.0622C141.153 92.1149 141.108 92.1481 141.06 92.1481Z" fill="#2F353B"/>
<path d="M159.245 106.523C158.593 106.523 158 106.486 157.479 106.408C156.302 106.231 155.486 105.687 155.055 104.788C153.529 101.615 157.243 95.147 157.403 94.874C157.432 94.8233 157.499 94.8057 157.549 94.835C157.6 94.8642 157.618 94.9305 157.588 94.9812C157.549 95.0475 153.773 101.625 155.248 104.696C155.648 105.527 156.409 106.032 157.51 106.198C161.632 106.818 170.573 104.69 178.462 102.813C182.265 101.908 185.86 101.052 188.819 100.51C198.033 98.8228 214.56 98.3489 214.726 98.345C214.786 98.345 214.835 98.3918 214.837 98.4484C214.839 98.5069 214.792 98.5576 214.734 98.5595C214.568 98.5634 198.056 99.0353 188.86 100.72C185.905 101.26 182.314 102.116 178.512 103.021C171.258 104.745 163.789 106.522 159.245 106.523Z" fill="#2F353B"/>
<path d="M201.806 78.162C201.513 78.162 201.132 78.0781 200.689 77.9085C199.411 77.421 198.993 76.834 198.687 76.403C198.568 76.2353 198.464 76.0891 198.332 75.9799C197.869 75.7147 189.725 76.7424 184.365 77.499C184.305 77.5068 184.252 77.4658 184.244 77.4073C184.237 77.3488 184.278 77.2942 184.336 77.2864C186.608 76.9666 197.961 75.391 198.47 75.8141C198.622 75.9409 198.74 76.1047 198.863 76.2782C199.169 76.7092 199.55 77.2435 200.767 77.7076C201.622 78.0333 202.112 77.9865 202.204 77.8071C202.282 77.655 202.095 77.3254 201.585 76.9958C200.722 76.4342 200.096 75.5021 200.272 75.0439C200.318 74.9229 200.463 74.728 200.912 74.7962L201.099 74.8254C201.919 74.9503 202.473 75.0361 202.793 75.2486C202.686 75.0224 202.485 74.6851 202.145 74.3087C202.095 74.2522 202.075 74.18 202.091 74.1059C202.192 73.6398 203.873 72.891 206.833 71.6079C209.843 70.3033 213.965 68.5171 213.922 67.6123C213.89 66.9356 214.033 66.4247 214.345 66.0971C214.683 65.7441 215.093 65.7402 215.108 65.7402C215.167 65.7402 215.216 65.789 215.216 65.8475C215.216 65.906 215.167 65.9547 215.108 65.9547C215.106 65.9547 214.769 65.9606 214.497 66.2492C214.228 66.5339 214.107 66.9902 214.136 67.6025C214.183 68.5775 211.174 69.9601 206.917 71.8048C204.792 72.7272 202.381 73.7705 202.297 74.1507C202.824 74.7475 203.156 75.4066 203.092 75.586C203.078 75.623 203.033 75.662 202.994 75.6679C202.914 75.6796 202.852 75.6133 202.801 75.545C202.592 75.2681 201.985 75.1745 201.064 75.0341L200.877 75.0049C200.721 74.9815 200.521 74.9814 200.471 75.116C200.348 75.4378 200.89 76.2841 201.7 76.8125C202.278 77.1889 202.543 77.6062 202.393 77.9007C202.305 78.0762 202.1 78.162 201.806 78.162Z" fill="#2F353B"/>
<path d="M45.0951 120.843V166.088C45.0951 169.122 42.6341 171.583 39.5953 171.583H6.92419C6.77977 171.583 6.63921 171.577 6.49674 171.565C5.76291 171.509 5.0662 171.308 4.44166 170.99C4.24259 170.891 4.05129 170.777 3.86588 170.655C2.39431 169.668 1.42435 167.989 1.42435 166.086V120.841C1.42435 119.012 2.31822 117.393 3.6922 116.393C3.87761 116.258 4.07082 116.135 4.27184 116.026C5.05837 115.591 5.96202 115.344 6.92419 115.344H39.5953C42.6341 115.346 45.0951 117.807 45.0951 120.843Z" fill="#D68D60"/>
<path d="M46.5746 159.184L46.3521 162.238L46.0808 167.751C46.0516 168.344 46.4107 168.888 46.9689 169.091C49.2074 169.902 55.2206 171.606 62.3598 169.746C71.4312 167.382 71.1502 166.403 66.9853 164.859C66.3647 164.629 65.7128 164.405 65.0453 164.18C61.2298 162.895 53.9207 162.09 53.7041 159.184H46.5746Z" fill="#D9805D"/>
<path d="M46.9705 169.092C49.2091 169.904 55.2222 171.608 62.3615 169.748C71.4329 167.384 71.1519 166.405 66.987 164.861C66.3663 164.631 65.7144 164.406 65.047 164.182C58.7626 168.607 48.2606 166.563 46.3538 162.24L46.0825 167.753C46.0513 168.346 46.4123 168.89 46.9705 169.092Z" fill="#A36046"/>
<path d="M46.1356 119.288L18.0822 121.246C-12.407 121.471 5.40407 91.4849 5.40407 91.4849L30.2548 94.9384C30.2548 94.9384 57.1763 103.173 65.024 107.216C71.7632 110.687 56.9694 159.547 56.9694 159.547H44.5684C44.5684 159.547 42.3435 128.832 46.8714 120.41C47.1544 119.879 46.7348 119.248 46.1356 119.288Z" fill="#D7D991"/>
<path d="M15.2368 29.5127L15.9491 28.2764L21.5231 18.5867L29.607 24.1911L30.2237 24.6181L28.2974 32.3617L26.9274 37.8667L25.7797 42.4824C25.7797 42.4824 21.6598 41.5776 18.9176 36.9248C18.9137 36.9248 16.0487 32.4865 15.2368 29.5127Z" fill="#D9805D"/>
<path d="M30.2216 24.618L28.2953 32.3616C25.0321 30.1015 25.5746 25.3629 25.5746 25.3629L29.6029 24.1909L30.2216 24.618Z" fill="#AD5B3B"/>
<path d="M32.7628 76.0718L36.1802 62.2168C38.5398 54.4985 34.1368 47.1313 28.1139 39.374C27.7236 38.8709 27.3274 38.3698 26.9254 37.8647C26.9254 37.8647 24.0408 37.2563 21.6675 35.0391C19.669 33.1749 15.9452 28.2744 15.9452 28.2744C15.75 28.5611 15.5549 28.8477 15.3656 29.1363C-2.60161 56.2555 3.50324 91.5921 3.50324 91.5921C16.7317 100.478 30.4696 93.4914 30.4696 93.4914C30.4696 93.4914 31.342 81.8322 32.7628 76.0718Z" fill="#7F8F5E"/>
<path d="M74.5914 74.6484C77.0349 74.8161 80.6338 75.3153 82.3864 75.8769C82.8645 76.0309 83.0851 76.8344 82.2927 77.004C81.7853 77.1113 78.4615 77.5461 72.5753 76.807C72.4621 76.7934 72.3899 76.9319 72.4738 77.006C72.5089 77.0372 72.5636 77.0703 72.6416 77.1015C72.7431 77.1444 79.0744 78.3086 79.1837 78.3339C82.1912 79.0457 84.6308 79.2777 84.3283 80.3347C83.9828 81.5437 74.7104 79.8238 72.1928 79.658C71.982 79.6444 71.9215 79.7321 71.9137 79.8277C71.9059 79.9466 71.9957 80.046 72.1128 80.0636C72.7783 80.1611 75.5047 80.5745 77.7902 81.1712C80.4913 81.8752 82.7045 82.5128 83.0792 83.0901C83.1397 83.1837 83.1534 83.2753 83.1124 83.365C83.0382 83.5269 82.8313 83.6419 82.5171 83.7121C80.9714 84.067 76.8065 83.404 72.8056 82.585C72.4074 82.5051 72.0113 82.4212 71.6209 82.3373C70.9983 82.2047 71.1896 82.9984 75.2979 84.6286C75.5262 84.7203 75.7683 84.812 76.022 84.9095C79.8941 86.3739 79.0666 86.7678 79.0666 86.7678C78.9768 86.8263 78.8636 86.8712 78.7328 86.9024C78.5689 86.9433 78.3718 86.9648 78.1532 86.9706C75.9166 87.0272 71.2072 85.3229 70.8422 85.2936C64.3607 84.7983 60.2621 80.947 60.2621 80.947C60.2621 80.947 35.5304 92.5458 29.328 88.402C23.1256 84.2581 16.2303 64.8689 16.2303 64.8689C16.2303 64.8689 20.9572 58.3929 27.2846 56.4097C27.2846 56.4097 34.3477 74.857 35.589 75.1749C36.8302 75.4927 60.8105 73.5797 60.8105 73.5797C60.8105 73.5797 65.2116 72.5872 66.9154 72.9187C68.6192 73.2463 73.3696 74.545 74.5914 74.6484Z" fill="#D9805D"/>
<path d="M40.0331 19.1637C39.2719 29.9045 35.431 31.4685 31.4789 30.6046C28.1337 29.8733 21.1311 24.8578 21.7029 17.3639C22.2748 9.86986 23.6858 3.07007 30.0073 3.55173C36.3288 4.03339 42.6249 11.0418 40.0331 19.1637Z" fill="#D9805D"/>
<path d="M16.9558 25.5463C17.1373 25.7881 17.4808 25.8447 17.7833 25.8564C18.8684 25.8993 23.65 24.544 25.5393 22.5784C25.9023 22.2001 26.156 21.8179 26.3238 21.4376C27.5397 18.7037 29.7373 16.543 32.5614 15.5426C35.4538 14.5189 38.354 12.9803 39.3279 10.7768C41.4904 5.88217 30.4185 -4.10008 22.1492 1.82413C16.4444 5.91726 8.44058 14.2732 16.9558 25.5463Z" fill="#2F353B"/>
<path d="M30.1965 18.9981C29.89 20.72 28.6039 21.931 27.3255 21.7028C26.0472 21.4747 25.2587 19.8971 25.5632 18.1752C25.8696 16.4533 27.1538 15.2423 28.4341 15.4705C29.7144 15.6967 30.5029 17.2762 30.1965 18.9981Z" fill="#D9805D"/>
<path d="M39.7577 17.7012C39.7577 17.7012 40.7062 22.7069 40.8585 23.6878C41.0615 24.9865 39.7831 24.8637 37.8353 24.6745C36.2779 24.5224 39.7577 17.7012 39.7577 17.7012Z" fill="#D9805D"/>
<path d="M39.8218 15.5231C39.8862 15.8839 39.1583 16.3168 38.1941 16.4904C37.23 16.6639 36.3966 16.5118 36.3303 16.151C36.2659 15.7903 36.9938 15.3554 37.958 15.1838C38.9241 15.0103 39.7574 15.1624 39.8218 15.5231Z" fill="#2F353B"/>
<path d="M36.4964 18.3118C37.7591 16.7186 39.9626 16.9682 39.6679 19.3102C39.6542 19.3999 39.5176 19.396 39.5058 19.3083C39.0979 17.3348 38.0557 17.5727 36.5998 18.4327C36.5276 18.4795 36.4398 18.3781 36.4964 18.3118Z" fill="#2F353B"/>
<path d="M39.1838 18.8752C39.0003 19.4953 38.5338 19.9048 38.1416 19.7897C37.7493 19.6747 37.5834 19.076 37.7669 18.4559C37.9523 17.8358 38.4167 17.4263 38.809 17.5413C39.1994 17.6583 39.3672 18.2551 39.1838 18.8752Z" fill="#2F353B"/>
<path d="M37.9611 27.1473C37.9533 27.1473 37.9474 27.1473 37.9415 27.1453C37.9064 27.1395 37.0679 26.9718 36.8924 26.4336C36.8748 26.377 36.9041 26.3166 36.9607 26.299C37.0172 26.2815 37.0777 26.3107 37.0952 26.3673C37.2317 26.7846 37.9727 26.9328 37.9805 26.9347C38.039 26.9464 38.0761 27.003 38.0663 27.0595C38.0566 27.1122 38.0118 27.1473 37.9611 27.1473Z" fill="#2F353B"/>
<path d="M14.2512 18.4697C14.2512 18.4697 7.57837 19.4292 7.08069 25.8643C6.58106 32.2994 7.58032 44.7348 2.59183 48.4867C2.59183 48.4867 2.68161 49.9687 6.25318 48.4867C9.82476 47.0046 16.0604 33.4733 13.8159 28.2765C11.5715 23.0796 15.2368 20.878 15.2368 20.878L14.2512 18.4697Z" fill="#2F353B"/>
<path d="M28.1136 39.376C26.2595 38.8865 23.2384 37.9856 21.6673 36.9384C19.8132 35.7002 16.6475 31.0786 15.3653 29.1402C15.5546 28.8497 15.7497 28.565 15.9449 28.2783C15.9449 28.2783 19.6687 33.1768 21.6673 35.043C24.0405 37.2602 26.9251 37.8686 26.9251 37.8686C27.3271 38.3717 27.7233 38.8729 28.1136 39.376Z" fill="white"/>
<path d="M15.8863 65.1261C15.8863 65.1261 22.6684 58.108 27.733 56.3334L26.7767 53.6755C26.7767 53.6755 18.4626 57.6205 14.7212 62.9382L15.8863 65.1261Z" fill="white"/>
<path d="M13.8083 62.17C13.7771 62.17 13.7458 62.1563 13.7243 62.129L11.9776 59.9294C11.9405 59.8826 11.9483 59.8163 11.9952 59.7792C12.042 59.7422 12.1084 59.75 12.1455 59.7968L13.8922 61.9964C13.9293 62.0432 13.9215 62.1095 13.8746 62.1466C13.8551 62.1641 13.8317 62.17 13.8083 62.17Z" fill="white"/>
<path d="M26.4209 52.9951C26.3839 52.9951 26.3468 52.9756 26.3273 52.9405C26.107 52.5544 25.0267 50.6063 25.4576 50.0779C25.4947 50.0311 25.5629 50.0252 25.6078 50.0622C25.6546 50.0993 25.6604 50.1675 25.6234 50.2124C25.3621 50.5342 26.0309 51.9908 26.5126 52.8333C26.5418 52.884 26.5243 52.9503 26.4736 52.9795C26.458 52.9893 26.4385 52.9951 26.4209 52.9951Z" fill="white"/>
<path d="M10.98 47.346C10.9547 47.346 10.9293 47.3382 10.9098 47.3187C10.8649 47.2797 10.861 47.2115 10.9 47.1666C11.1947 46.8312 18.1329 38.9745 20.512 40.3317C22.854 41.6694 23.3459 43.6487 23.3654 43.7326C23.3791 43.7911 23.3439 43.8477 23.2854 43.8613C23.2268 43.873 23.1702 43.8398 23.1566 43.7813C23.1527 43.7618 22.6628 41.806 20.4047 40.517C18.1798 39.2475 11.1323 47.2251 11.06 47.307C11.0405 47.3324 11.0093 47.346 10.98 47.346Z" fill="white"/>
</svg>
